<?xml version="1.0" standalone="no"?><!DOCTYPE svg PUBLIC "-//W3C//DTD SVG 1.1//EN" "http://www.w3.org/Graphics/SVG/1.1/DTD/svg11.dtd"><svg t="1775969371477" class="icon" viewBox="0 0 1024 1024" version="1.1" xmlns="http://www.w3.org/2000/svg" p-id="2701" xmlns:xlink="http://www.w3.org/1999/xlink" width="200" height="200"><path d="M514.633985 8.733901c-279.641396 0-506.331918 226.690522-506.331918 506.330895 0 279.637303 226.690522 506.326802 506.331918 506.326802 279.637303 0 506.326802-226.689499 506.326802-506.326802C1020.960787 235.424423 794.271288 8.733901 514.633985 8.733901zM837.201967 810.841652c-7.582684 5.868649-15.047688 11.132526-22.379662 15.781397-7.346301 4.642731-14.925914 8.314346-22.758284 11.010753-7.8293 2.690267-15.654507 3.299133-23.485854 1.835808-21.04118-4.409418-39.75332-6.362905-56.145629-5.870696-16.390263 0.486069-31.433857 2.320854-45.137946 5.504353-13.702043 3.180429-26.419667 7.212248-38.164128 12.107735-11.747532 4.897534-23.118487 9.662038-34.12617 14.310909-11.013823 4.646824-22.020482 8.566079-33.026118 11.744462-11.013823 3.177359-22.875964 4.766551-35.601775 4.766551-27.403062-0.487093-53.828868-4.525051-79.26821-12.107735-25.445481-7.58473-49.662997-15.294304-72.658688-23.120534-23.003877-7.824184-44.407307-13.819723-64.219499-17.979454-19.819355-4.158708-37.799832-3.05661-53.947572 3.303226-9.785858 3.916185-19.812192 4.157685-30.090259 0.731662-10.27602-3.427046-19.570692-7.8293-27.885038-13.21495-9.788928-6.358812-19.329192-14.432682-28.627957-24.221609 18.103274-55.77417 38.651221-103.481632 61.646912-143.115226 22.999784-39.636663 45.137946-72.292345 66.423696-97.980349 21.284726-25.683911 40.119663-45.143063 56.512995-58.354943 16.392309-13.203693 26.787033-21.281656 31.192357-24.216493 4.406348-2.447744 6.848975-8.442259 7.335044-17.978431 0.493233-9.547428 0.248663-19.206396-0.730639-28.99123-1.466395-11.742415-3.671615-24.710749-6.604405-38.902954l-107.876724-216.50353 129.172707-21.28575c13.210857 24.953272 26.054347 43.918168 38.527401 56.880361 12.480217 12.962194 24.474365 21.774889 35.967094 26.415573 11.496822 4.649894 22.383755 5.875812 32.661822 3.673662 10.27909-2.201127 19.818332-6.484678 28.620794-12.84349 20.549994-14.678275 39.875093-39.390047 57.98553-74.12713l129.904369 21.28575c-9.781764 22.992621-20.549994 46.727138-32.292409 71.19434-9.783811 21.03197-21.16193 44.280417-34.128217 69.723852-12.963217 25.445481-26.791126 50.636159-41.465308 75.592501-5.875812 16.632786-9.172898 30.337898-9.907631 41.104081-0.731662 10.764136-0.371459 19.570692 1.102099 26.421713 1.949394 7.824184 4.885254 13.940472 8.804509 18.345797 4.892417 2.44672 12.112851 6.358812 21.653116 11.741392 9.543335 5.37951 20.545901 12.966287 33.025095 22.754191 12.473054 9.789951 26.300963 22.388872 41.465308 37.801879 15.166391 15.405844 30.702195 34.734013 46.605364 57.983483 15.899077 23.237191 31.926066 50.758956 48.067666 82.560179 16.14774 31.808386 31.560747 68.74762 46.239021 110.827933C852.251701 799.831922 844.789767 804.973002 837.201967 810.841652z" fill="#1296db" p-id="2702"></path></svg>